# xmcd
#
# Track frame offsets:
#	150
#	14469
#	27615
#	36551
#	49274
#	62148
#	77340
#	86460
#	89413
#	102585
#	118232
#	129247
#	140917
#	141842
#	153168
#	165876
#	179356
#	191369
#	203910
#	214579
#	220782
#	233531
#	248088
#	262365
#	274195
#	289038
#	299522
#	309219
#	322863
#	338081
#	350122
#
# Disc length: 4767 seconds
#
# Revision: 4
# Processed by: cddbd v1.5.2PL0 Copyright (c) Steve Scherf et al.
# Submitted via: EZCDAudioConverter 2.1.7.1
#
DISCID=d3129d1f
DTITLE=The Kinks - The Anthology 1964-1971 4/5
DYEAR=2014
DGENRE=
TTITLE0=Autumn Almanac [Mono]
TTITLE1=Lavender Hill [Mono]
TTITLE2=Rosemary Rose
TTITLE3=Wonderboy [Mono]
TTITLE4=Polly [Mono]
TTITLE5=Dave Davies - Lincoln County [Stereo Single]
TTITLE6=Did You See His Name? [Stereo With Alternate Ending]
TTITLE7=Days [Session Excerpt]
TTITLE8=Days
TTITLE9=Misty Water [Alternate Mix]
TTITLE10=Do You Remember Walter [Mono]
TTITLE11=Picture Book [Mono]
TTITLE12=Johnny Thunder [Session Excerpt]
TTITLE13=Johnny Thunder [Stereo Remix]
TTITLE14=Big Sky [Mono]
TTITLE15=Animal Farm [Mono]
TTITLE16=Starstruck
TTITLE17=Pictures In The Sand [Mono]
TTITLE18=People Take Pictures Of Each Other [European Stereo Mix]
TTITLE19=Interview: Ray Davies talks about Village Green Preservation Socie
TTITLE19=ty
TTITLE20=The Village Green Preservation Society [Live At The Playhouse Thea
TTITLE20=tre, 1968]
TTITLE21=Dave Davies - Hold My Hand
TTITLE22=Dave Davies - Creeping Jean
TTITLE23=Berkeley Mews
TTITLE24=Till Death Us Do Part [Mono]
TTITLE25=When I Turn Off The Living Room Light [Mono]
TTITLE26=Where Did My Spring Go [Mono]
TTITLE27=Plastic Man
TTITLE28=King Kong [Mono]
TTITLE29=This Man He Weeps Tonight [Mono]
TTITLE30=Reprise US Tour Spot
EXTD=
EXTT0=
EXTT1=
EXTT2=
EXTT3=
EXTT4=
EXTT5=
EXTT6=
EXTT7=
EXTT8=
EXTT9=
EXTT10=
EXTT11=
EXTT12=
EXTT13=
EXTT14=
EXTT15=
EXTT16=
EXTT17=
EXTT18=
EXTT19=
EXTT20=
EXTT21=
EXTT22=
EXTT23=
EXTT24=
EXTT25=
EXTT26=
EXTT27=
EXTT28=
EXTT29=
EXTT30=
PLAYORDER=
